<svg width="138" height="64" viewBox="0 0 138 64" fill="none" xmlns="http://www.w3.org/2000/svg">
<path d="M41.7057 19.4916C39.6728 17.4625 36.3463 17.4625 34.3132 19.4916C32.2803 21.5207 32.2803 24.841 34.3132 26.8701C34.6274 27.1837 34.9785 27.4603 35.3482 27.6817L34.3132 28.7147L31.5411 31.4816L35.3543 35.2876C35.5822 34.9127 35.8472 34.5622 36.1614 34.2486C38.2005 32.2133 41.5147 32.2133 43.5539 34.2486C45.593 36.2838 45.593 39.5918 43.5539 41.6271C43.2397 41.9407 42.8947 42.2112 42.5128 42.4325L47.3117 47.2224L60.3102 34.2486C61.8441 32.7175 61.8441 30.2457 60.3102 28.7147L47.3117 15.7408L42.5189 20.5245C42.2971 20.1557 42.0199 19.8052 41.7057 19.4916Z" fill="#71B989"/>
<path d="M43.554 41.6271C45.5931 39.5919 45.5931 36.2838 43.554 34.2486C41.515 32.2134 38.2006 32.2134 36.1615 34.2486C35.8473 34.5622 35.5762 34.9066 35.3544 35.2878L31.5412 31.4818L30.6171 32.404L27.7279 35.2878C28.1037 35.5153 28.4549 35.7796 28.7691 36.0932C30.8081 38.1284 30.8081 41.4365 28.7691 43.4717C26.73 45.5069 23.4156 45.5069 21.3766 43.4717C21.0624 43.1581 20.7913 42.8138 20.5695 42.4326L15.7706 47.2226L28.7691 60.1963C30.3029 61.7275 32.7794 61.7273 34.3133 60.1963L46.3877 48.1448L47.3118 47.2224L42.5129 42.4326C42.8948 42.2112 43.2398 41.9407 43.554 41.6271Z" fill="#61BDE8"/>
<path d="M21.3766 43.4717C23.4156 45.5069 26.7299 45.5069 28.7691 43.4717C30.8081 41.4365 30.8081 38.1284 28.7691 36.0932C28.4549 35.7796 28.1099 35.509 27.7279 35.2878L30.6172 32.4039L31.5412 31.4816L27.7341 27.6817C27.5123 28.0506 27.235 28.4011 26.9208 28.7147C24.8879 30.7438 21.5614 30.7438 19.5284 28.7147C17.4955 26.6856 17.4955 23.3653 19.5285 21.3362C19.8426 21.0226 20.1937 20.7459 20.5634 20.5245L15.7706 15.7408L2.77216 28.7147C1.23822 30.2457 1.23822 32.7175 2.77216 34.2486L15.7706 47.2224L20.5695 42.4325C20.7913 42.8138 21.0624 43.1581 21.3766 43.4717Z" fill="#85599D"/>
<path d="M28.7691 2.76696L18.5427 12.9739L15.7706 15.7408L20.5634 20.5245C20.1937 20.7459 19.8425 21.0226 19.5284 21.3362C17.4954 23.3653 17.4954 26.6856 19.5284 28.7147C21.5614 30.7438 24.8879 30.7438 26.9208 28.7147C27.235 28.4011 27.5123 28.0506 27.7341 27.6817L31.5412 31.4816L34.3133 28.7147L35.3483 27.6817C34.9786 27.4603 34.6275 27.1837 34.3133 26.8701C32.2804 24.841 32.2804 21.5207 34.3133 19.4916C36.3464 17.4625 39.6729 17.4625 41.7058 19.4916C42.02 19.8052 42.2972 20.1557 42.519 20.5245L47.3118 15.7408L34.3134 2.76696C32.7794 1.23592 30.3029 1.23592 28.7691 2.76696Z" fill="#F2D996"/>
<path d="M40.1946 20.8825C38.2354 18.9168 35.0294 18.9168 33.07 20.8825C31.1107 22.8482 31.1107 26.0648 33.07 28.0304C33.3728 28.3342 33.7112 28.6022 34.0675 28.8166L33.07 29.8174L30.3983 32.4978L34.0734 36.1849C34.2931 35.8217 34.5485 35.4822 34.8513 35.1784C36.8164 33.2066 40.0106 33.2066 41.9759 35.1784C43.9411 37.15 43.9411 40.3545 41.9759 42.3263C41.6731 42.6299 41.3406 42.8921 40.9725 43.1065L45.5975 47.7467L58.125 35.1784C59.6034 33.6951 59.6034 31.3005 58.125 29.8174L45.5975 17.2489L40.9784 21.8831C40.7647 21.5258 40.4974 21.1863 40.1946 20.8825Z" fill="#71B989"/>
<path d="M41.976 42.3263C43.9412 40.3547 43.9412 37.15 41.976 35.1784C40.0108 33.2068 36.8166 33.2068 34.8514 35.1784C34.5486 35.4822 34.2873 35.8158 34.0735 36.1851L30.3984 32.498L29.5079 33.3914L26.7233 36.1851C27.0855 36.4054 27.4239 36.6615 27.7267 36.9653C29.6919 38.9369 29.6919 42.1417 27.7267 44.1133C25.7616 46.0849 22.5673 46.0849 20.6021 44.1133C20.2993 43.8095 20.038 43.4759 19.8243 43.1066L15.1992 47.7469L27.7267 60.3152C29.2051 61.7985 31.5918 61.7984 33.0701 60.3152L44.7071 48.6403L45.5976 47.7467L40.9726 43.1066C41.3407 42.8921 41.6732 42.6301 41.976 42.3263Z" fill="#61BDE8"/>
<path d="M20.6021 44.1132C22.5673 46.0848 25.7614 46.0848 27.7268 44.1132C29.6919 42.1416 29.6919 38.9369 27.7268 36.9653C27.4239 36.6615 27.0914 36.3994 26.7233 36.185L29.5079 33.3913L30.3984 32.4978L26.7293 28.8166C26.5155 29.1741 26.2483 29.5136 25.9455 29.8174C23.9862 31.783 20.7803 31.783 18.8209 29.8174C16.8616 27.8517 16.8616 24.6351 18.821 22.6695C19.1237 22.3657 19.4621 22.0976 19.8184 21.8831L15.1992 17.2489L2.67176 29.8174C1.1934 31.3005 1.1934 33.6951 2.67176 35.1784L15.1992 47.7467L19.8243 43.1065C20.038 43.4758 20.2993 43.8094 20.6021 44.1132Z" fill="#85599D"/>
<path d="M27.7267 4.68051L17.8709 14.5685L15.1992 17.2489L19.8183 21.8831C19.4621 22.0976 19.1237 22.3657 18.8208 22.6695C16.8616 24.6351 16.8616 27.8517 18.8208 29.8174C20.7802 31.7831 23.9862 31.7831 25.9455 29.8174C26.2483 29.5136 26.5155 29.1741 26.7292 28.8166L30.3984 32.4978L33.0701 29.8174L34.0676 28.8166C33.7113 28.6022 33.3729 28.3342 33.0701 28.0304C31.1109 26.0648 31.1109 22.8482 33.0701 20.8825C35.0295 18.9168 38.2355 18.9168 40.1948 20.8825C40.4976 21.1863 40.7648 21.5258 40.9785 21.8831L45.5976 17.2489L33.0703 4.68051C31.5918 3.19732 29.2051 3.19732 27.7267 4.68051Z" fill="#F2D996"/>
<path d="M70.2025 17.721C70.5948 17.721 70.9441 17.8127 71.2504 17.996C71.5567 18.1793 71.7958 18.4435 71.9678 18.7885C72.1451 19.1336 72.2338 19.5379 72.2338 20.0016C72.2338 20.4652 72.1451 20.8696 71.9678 21.2146C71.7958 21.5543 71.5567 21.8157 71.2504 21.999C70.9441 22.1823 70.5948 22.274 70.2025 22.274C69.7726 22.274 69.4072 22.1662 69.1063 21.9505C68.8107 21.7295 68.6065 21.441 68.4936 21.0852V24.32H67.7601V17.7776H68.4936V18.9098C68.6065 18.554 68.8107 18.2683 69.1063 18.0526C69.4072 17.8316 69.7726 17.721 70.2025 17.721ZM69.9929 18.3761C69.7081 18.3761 69.4502 18.4435 69.2191 18.5783C68.988 18.7076 68.808 18.8963 68.679 19.1443C68.5501 19.3923 68.4856 19.6781 68.4856 20.0016C68.4856 20.325 68.5501 20.6108 68.679 20.8588C68.808 21.1014 68.988 21.2901 69.2191 21.4249C69.4502 21.5596 69.7081 21.627 69.9929 21.627C70.4497 21.627 70.8124 21.4842 71.0811 21.1984C71.3552 20.9073 71.4922 20.5083 71.4922 20.0016C71.4922 19.4948 71.3552 19.0985 71.0811 18.8128C70.8124 18.5216 70.4497 18.3761 69.9929 18.3761ZM73.9252 18.6753C74.0702 18.368 74.2825 18.1308 74.5619 17.9636C74.8414 17.7911 75.1745 17.7049 75.5615 17.7049V18.5055H75.3358C74.922 18.5055 74.5834 18.6133 74.3201 18.829C74.0568 19.0392 73.9252 19.3896 73.9252 19.8803V22.2174H73.1916V17.7776H73.9252V18.6753ZM80.3558 19.7509C80.3558 19.9072 80.345 20.042 80.3235 20.1552H76.7849C76.801 20.662 76.9434 21.0421 77.2121 21.2955C77.4862 21.5489 77.8194 21.6756 78.2117 21.6756C78.5663 21.6756 78.8619 21.5866 79.0983 21.4087C79.3401 21.2254 79.4879 20.9828 79.5416 20.6809H80.3235C80.2698 20.9882 80.1489 21.2631 79.9608 21.5057C79.7781 21.7483 79.539 21.937 79.2434 22.0718C78.9478 22.2066 78.6147 22.274 78.2439 22.274C77.8194 22.274 77.4432 22.1823 77.1154 21.999C76.7876 21.8157 76.5297 21.5543 76.3416 21.2146C76.1589 20.8696 76.0675 20.4652 76.0675 20.0016C76.0675 19.5379 76.1589 19.1336 76.3416 18.7885C76.5297 18.4435 76.7876 18.1793 77.1154 17.996C77.4432 17.8127 77.8194 17.721 78.2439 17.721C78.6738 17.721 79.0473 17.8127 79.3643 17.996C79.6867 18.1793 79.9312 18.4246 80.0978 18.7319C80.2698 19.0392 80.3558 19.3789 80.3558 19.7509ZM79.6142 19.7994C79.6303 19.4705 79.5766 19.1956 79.453 18.9745C79.3294 18.7535 79.1601 18.589 78.9452 18.4812C78.7302 18.3734 78.4965 18.3195 78.2439 18.3195C77.8409 18.3195 77.5023 18.4462 77.2283 18.6996C76.9542 18.9476 76.8064 19.3142 76.7849 19.7994H79.6142ZM82.7015 17.721C83.2013 17.721 83.6016 17.8531 83.9026 18.1173C84.2089 18.3761 84.3943 18.7265 84.4588 19.1686H83.7575C83.7252 18.9044 83.6151 18.6888 83.427 18.5216C83.2443 18.3491 82.9971 18.2629 82.6854 18.2629C82.4221 18.2629 82.2152 18.3276 82.0648 18.457C81.9197 18.581 81.8471 18.7508 81.8471 18.9664C81.8471 19.1282 81.8955 19.2603 81.9922 19.3627C82.0943 19.4597 82.2179 19.5352 82.363 19.5891C82.5135 19.6376 82.7177 19.6916 82.9756 19.7509C83.3034 19.8263 83.5667 19.9045 83.7655 19.9854C83.9697 20.0609 84.1417 20.1849 84.2814 20.3574C84.4265 20.5299 84.4991 20.7617 84.4991 21.0529C84.4991 21.4141 84.362 21.7079 84.088 21.9343C83.8193 22.1608 83.4592 22.274 83.0078 22.274C82.4812 22.274 82.0513 22.1473 81.7181 21.8939C81.385 21.6405 81.1888 21.2874 81.1297 20.8345H81.8391C81.8659 21.1041 81.9815 21.3224 82.1857 21.4896C82.3952 21.6567 82.6693 21.7403 83.0078 21.7403C83.2604 21.7403 83.4566 21.6756 83.5963 21.5462C83.7414 21.4168 83.8139 21.247 83.8139 21.0367C83.8139 20.8642 83.7629 20.7267 83.6608 20.6243C83.5587 20.5218 83.4324 20.4436 83.2819 20.3897C83.1314 20.3358 82.9246 20.2792 82.6612 20.2199C82.3334 20.1444 82.0701 20.069 81.8713 19.9935C81.6778 19.918 81.5113 19.7994 81.3715 19.6376C81.2372 19.4705 81.17 19.2468 81.17 18.9664C81.17 18.5944 81.3071 18.2952 81.5811 18.0688C81.8552 17.837 82.2287 17.721 82.7015 17.721ZM89.55 19.7509C89.55 19.9072 89.5392 20.042 89.5177 20.1552H85.9791C85.9952 20.662 86.1376 21.0421 86.4063 21.2955C86.6804 21.5489 87.0136 21.6756 87.4058 21.6756C87.7605 21.6756 88.0561 21.5866 88.2925 21.4087C88.5343 21.2254 88.6821 20.9828 88.7358 20.6809H89.5177C89.464 20.9882 89.3431 21.2631 89.155 21.5057C88.9723 21.7483 88.7332 21.937 88.4376 22.0718C88.142 22.2066 87.8089 22.274 87.4381 22.274C87.0136 22.274 86.6374 22.1823 86.3096 21.999C85.9818 21.8157 85.7239 21.5543 85.5358 21.2146C85.3531 20.8696 85.2617 20.4652 85.2617 20.0016C85.2617 19.5379 85.3531 19.1336 85.5358 18.7885C85.7239 18.4435 85.9818 18.1793 86.3096 17.996C86.6374 17.8127 87.0136 17.721 87.4381 17.721C87.868 17.721 88.2415 17.8127 88.5585 17.996C88.8809 18.1793 89.1254 18.4246 89.292 18.7319C89.464 19.0392 89.55 19.3789 89.55 19.7509ZM88.8084 19.7994C88.8245 19.4705 88.7708 19.1956 88.6472 18.9745C88.5236 18.7535 88.3543 18.589 88.1394 18.4812C87.9244 18.3734 87.6907 18.3195 87.4381 18.3195C87.0351 18.3195 86.6965 18.4462 86.4224 18.6996C86.1484 18.9476 86.0006 19.3142 85.9791 19.7994H88.8084ZM91.2428 18.6753C91.3879 18.368 91.6002 18.1308 91.8796 17.9636C92.1591 17.7911 92.4922 17.7049 92.8791 17.7049V18.5055H92.6534C92.2397 18.5055 91.9011 18.6133 91.6378 18.829C91.3745 19.0392 91.2428 19.3896 91.2428 19.8803V22.2174H90.5093V17.7776H91.2428V18.6753ZM95.3198 21.433L96.69 17.7776H97.48L95.747 22.2174H94.8764L93.1434 17.7776H93.9333L95.3198 21.433ZM102.271 19.7509C102.271 19.9072 102.26 20.042 102.238 20.1552H98.6997C98.7158 20.662 98.8582 21.0421 99.1269 21.2955C99.401 21.5489 99.7341 21.6756 100.126 21.6756C100.481 21.6756 100.777 21.5866 101.013 21.4087C101.255 21.2254 101.403 20.9828 101.456 20.6809H102.238C102.185 20.9882 102.064 21.2631 101.876 21.5057C101.693 21.7483 101.454 21.937 101.158 22.0718C100.863 22.2066 100.529 22.274 100.159 22.274C99.7341 22.274 99.358 22.1823 99.0302 21.999C98.7024 21.8157 98.4444 21.5543 98.2564 21.2146C98.0737 20.8696 97.9823 20.4652 97.9823 20.0016C97.9823 19.5379 98.0737 19.1336 98.2564 18.7885C98.4444 18.4435 98.7024 18.1793 99.0302 17.996C99.358 17.8127 99.7341 17.721 100.159 17.721C100.589 17.721 100.962 17.8127 101.279 17.996C101.602 18.1793 101.846 18.4246 102.013 18.7319C102.185 19.0392 102.271 19.3789 102.271 19.7509ZM101.529 19.7994C101.545 19.4705 101.491 19.1956 101.368 18.9745C101.244 18.7535 101.075 18.589 100.86 18.4812C100.645 18.3734 100.411 18.3195 100.159 18.3195C99.7556 18.3195 99.4171 18.4462 99.143 18.6996C98.869 18.9476 98.7212 19.3142 98.6997 19.7994H101.529ZM105.528 17.7776L106.963 21.2712L108.293 17.7776H109.107L106.479 24.32H105.649L106.568 22.1446L104.706 17.7776H105.528ZM111.786 17.721C112.211 17.721 112.59 17.8127 112.923 17.996C113.261 18.1793 113.525 18.4435 113.713 18.7885C113.906 19.1336 114.003 19.5379 114.003 20.0016C114.003 20.4652 113.906 20.8696 113.713 21.2146C113.525 21.5543 113.261 21.8157 112.923 21.999C112.59 22.1823 112.211 22.274 111.786 22.274C111.362 22.274 110.98 22.1823 110.642 21.999C110.308 21.8157 110.045 21.5543 109.852 21.2146C109.658 20.8696 109.561 20.4652 109.561 20.0016C109.561 19.5379 109.658 19.1336 109.852 18.7885C110.045 18.4435 110.308 18.1793 110.642 17.996C110.98 17.8127 111.362 17.721 111.786 17.721ZM111.786 18.368C111.523 18.368 111.278 18.4273 111.053 18.5459C110.832 18.6645 110.652 18.8478 110.513 19.0958C110.378 19.3384 110.311 19.6403 110.311 20.0016C110.311 20.3574 110.378 20.6593 110.513 20.9073C110.652 21.1499 110.832 21.3305 111.053 21.4491C111.278 21.5677 111.523 21.627 111.786 21.627C112.05 21.627 112.291 21.5677 112.512 21.4491C112.737 21.3305 112.917 21.1499 113.052 20.9073C113.191 20.6593 113.261 20.3574 113.261 20.0016C113.261 19.6403 113.191 19.3384 113.052 19.0958C112.917 18.8478 112.737 18.6645 112.512 18.5459C112.291 18.4273 112.05 18.368 111.786 18.368ZM118.892 17.7776V22.2174H118.159V21.1742C118.046 21.5354 117.844 21.813 117.554 22.0071C117.269 22.1958 116.936 22.2902 116.555 22.2902C116.044 22.2902 115.63 22.1257 115.313 21.7969C114.996 21.4626 114.838 20.9855 114.838 20.3655V17.7776H115.571V20.2927C115.571 20.7348 115.684 21.0771 115.91 21.3197C116.136 21.557 116.442 21.6756 116.829 21.6756C117.232 21.6756 117.554 21.5462 117.796 21.2874C118.038 21.0232 118.159 20.6404 118.159 20.139V17.7776H118.892ZM120.801 18.6753C120.946 18.368 121.158 18.1308 121.438 17.9636C121.717 17.7911 122.05 17.7049 122.437 17.7049V18.5055H122.212C121.798 18.5055 121.459 18.6133 121.196 18.829C120.933 19.0392 120.801 19.3896 120.801 19.8803V22.2174H120.067V17.7776H120.801V18.6753Z" fill="#71B989"/>
<path d="M78.4007 37.0909C78.4007 37.8649 78.2843 38.5896 78.0517 39.2652C77.8191 39.9409 77.4823 40.5306 77.0415 41.0343C76.6008 41.5319 76.0619 41.9249 75.4252 42.2136C74.7885 42.5023 74.066 42.6467 73.2579 42.6467C72.6395 42.6467 72.0702 42.527 71.5497 42.2873C71.0354 42.0416 70.5947 41.6669 70.2272 41.1633V47.3457H67.1232V31.793H68.317L69.6946 34.1056C69.8293 33.7187 70.013 33.3685 70.2456 33.0553C70.4844 32.7358 70.7568 32.4656 71.063 32.2446C71.3752 32.0172 71.715 31.8422 72.0824 31.7193C72.4559 31.5965 72.8476 31.5351 73.2579 31.5351C74.066 31.5351 74.7885 31.6794 75.4252 31.9681C76.0619 32.2568 76.6008 32.6529 77.0415 33.1566C77.4823 33.6542 77.8191 34.2408 78.0517 34.9165C78.2843 35.5921 78.4007 36.3169 78.4007 37.0909ZM75.2507 37.0909C75.2507 36.8206 75.2354 36.535 75.2048 36.234C75.1803 35.9268 75.1344 35.6229 75.0671 35.3219C74.9996 35.0208 74.9048 34.7322 74.7823 34.4558C74.6661 34.1794 74.516 33.9367 74.3324 33.7278C74.1487 33.5129 73.9252 33.344 73.662 33.2212C73.4047 33.0922 73.1047 33.0276 72.7619 33.0276C72.4068 33.0276 72.0977 33.0891 71.8344 33.2119C71.5772 33.3348 71.3538 33.5037 71.164 33.7187C70.9804 33.9276 70.8272 34.1702 70.7048 34.4465C70.5885 34.7169 70.4966 35.0025 70.4293 35.3034C70.362 35.6044 70.3129 35.9085 70.2823 36.2155C70.2579 36.5227 70.2456 36.8145 70.2456 37.0909C70.2456 37.3365 70.264 37.6098 70.3007 37.9109C70.3374 38.2057 70.3956 38.5036 70.4752 38.8046C70.5548 39.1055 70.6589 39.3973 70.7874 39.68C70.916 39.9625 71.0721 40.2142 71.2558 40.4354C71.4456 40.6566 71.663 40.8346 71.9079 40.9698C72.1588 41.0988 72.4436 41.1633 72.7619 41.1633C73.1109 41.1633 73.414 41.1019 73.6711 40.979C73.9283 40.85 74.1487 40.6811 74.3324 40.4722C74.516 40.2572 74.6661 40.0115 74.7823 39.7352C74.9048 39.4588 74.9996 39.1701 75.0671 38.8691C75.1344 38.5681 75.1803 38.2641 75.2048 37.9569C75.2354 37.6499 75.2507 37.3612 75.2507 37.0909ZM79.8609 37.8832C79.8609 37.398 79.9006 36.8943 79.9803 36.3723C80.066 35.8501 80.1853 35.328 80.3385 34.8058C80.4977 34.2838 80.6873 33.7679 80.9078 33.258C81.1283 32.7482 81.3761 32.2598 81.6517 31.793H83.9201C83.767 32.2537 83.6292 32.7358 83.5068 33.2395C83.3905 33.7371 83.2894 34.2377 83.2037 34.7414C83.1241 35.2389 83.0599 35.7272 83.0108 36.2064C82.968 36.6855 82.9466 37.1308 82.9466 37.5423C82.9466 37.782 82.9557 38.0399 82.9741 38.3162C82.9986 38.5866 83.0384 38.86 83.0936 39.1363C83.1487 39.4066 83.2251 39.6676 83.3232 39.9195C83.4271 40.1713 83.5588 40.3955 83.718 40.592C83.8772 40.7825 84.0701 40.936 84.2966 41.0527C84.5292 41.1633 84.8016 41.2186 85.114 41.2186C85.42 41.2186 85.6924 41.151 85.9313 41.0159C86.1762 40.8745 86.3905 40.6934 86.5741 40.4722C86.7578 40.245 86.9139 39.987 87.0425 39.6983C87.171 39.4096 87.2751 39.1148 87.3547 38.8139C87.4404 38.5067 87.5016 38.2088 87.5385 37.9201C87.5813 37.6252 87.6027 37.3612 87.6027 37.1277V31.793H90.7068V42.4348H89.5129L88.0894 39.9563C87.9119 40.3679 87.6946 40.7426 87.4374 41.0804C87.1863 41.4121 86.8986 41.6977 86.5741 41.9373C86.2496 42.1768 85.8885 42.3611 85.4904 42.4901C85.0986 42.619 84.673 42.6836 84.2139 42.6836C83.4793 42.6836 82.8394 42.5638 82.2945 42.3243C81.7496 42.0846 81.2966 41.7529 80.9353 41.3292C80.5741 40.9053 80.3047 40.4016 80.1273 39.8181C79.9497 39.2284 79.8609 38.5835 79.8609 37.8832ZM101.7 42.4348H92.7179V41.2002L98.2741 33.0276H92.7179V31.793H101.7V33.0276L96.1434 41.2002H101.7V42.4348ZM112.095 42.4348H103.114V41.2002L108.67 33.0276H103.114V31.793H112.095V33.0276L106.539 41.2002H112.095V42.4348ZM117.192 42.4348H114.088V26.8914H115.282L117.192 30.1254V42.4348ZM122.335 37.3857C122.715 37.4717 123.094 37.5392 123.474 37.5884C123.854 37.6376 124.236 37.6621 124.622 37.6621C125.026 37.6621 125.399 37.6252 125.742 37.5516C126.091 37.4717 126.391 37.3427 126.642 37.1645C126.899 36.9803 127.102 36.7377 127.248 36.4367C127.395 36.1357 127.469 35.761 127.469 35.3126C127.469 34.9502 127.42 34.6185 127.322 34.3175C127.224 34.0165 127.077 33.7586 126.881 33.5436C126.691 33.3286 126.456 33.1628 126.174 33.0461C125.892 32.9232 125.565 32.8619 125.191 32.8619C124.842 32.8619 124.527 32.9263 124.245 33.0553C123.97 33.1843 123.725 33.3593 123.511 33.5805C123.303 33.7955 123.122 34.0473 122.969 34.336C122.822 34.6247 122.699 34.9256 122.602 35.2389C122.503 35.5523 122.433 35.8686 122.39 36.1879C122.347 36.5073 122.326 36.8083 122.326 37.0909C122.326 37.14 122.326 37.1892 122.326 37.2382C122.326 37.2874 122.329 37.3365 122.335 37.3857ZM129.985 35.285C129.985 35.7211 129.915 36.1112 129.774 36.4552C129.633 36.7929 129.44 37.0909 129.195 37.3489C128.957 37.6069 128.678 37.825 128.36 38.003C128.041 38.1812 127.702 38.3286 127.34 38.4452C126.979 38.5559 126.606 38.6357 126.22 38.6849C125.84 38.7339 125.47 38.7586 125.109 38.7586C124.649 38.7586 124.196 38.7279 123.75 38.6664C123.303 38.5989 122.862 38.4944 122.427 38.3532C122.494 38.7586 122.602 39.1456 122.748 39.5141C122.895 39.8765 123.091 40.1959 123.336 40.4722C123.581 40.7426 123.881 40.9576 124.236 41.1173C124.597 41.277 125.023 41.3568 125.513 41.3568C125.837 41.3568 126.146 41.3076 126.44 41.2093C126.734 41.1111 127.004 40.9729 127.248 40.7948C127.493 40.6166 127.708 40.4047 127.891 40.159C128.081 39.9133 128.234 39.6399 128.351 39.339L129.691 39.8366C129.489 40.3218 129.211 40.7426 128.856 41.0988C128.507 41.449 128.109 41.7407 127.662 41.9741C127.221 42.2013 126.749 42.3702 126.247 42.4809C125.752 42.5914 125.259 42.6467 124.769 42.6467C123.961 42.6467 123.214 42.5116 122.528 42.2412C121.842 41.9649 121.252 41.5809 120.756 41.0897C120.26 40.5982 119.871 40.0115 119.589 39.3298C119.308 38.6479 119.167 37.9016 119.167 37.0909C119.167 36.2801 119.308 35.5338 119.589 34.8519C119.871 34.1702 120.26 33.5835 120.756 33.0922C121.252 32.6008 121.842 32.2199 122.528 31.9496C123.214 31.6732 123.961 31.5351 124.769 31.5351C125.161 31.5351 125.562 31.5627 125.972 31.6179C126.382 31.6732 126.78 31.7623 127.166 31.8852C127.551 32.0018 127.916 32.1555 128.259 32.3458C128.601 32.5362 128.898 32.7728 129.149 33.0553C129.407 33.3317 129.609 33.6542 129.756 34.0227C129.909 34.3912 129.985 34.812 129.985 35.285Z" fill="#303133"/>
</svg>
