<svg width="32" height="22" viewBox="0 0 32 22" fill="none" xmlns="http://www.w3.org/2000/svg">
<path d="M11.4581 0.397513C11.7258 0.664942 11.8772 1.02731 11.8791 1.40576C11.8811 1.78421 11.7335 2.14811 11.4685 2.41829L4.7895 9.10976H30.2054C30.5747 9.12387 30.9242 9.2805 31.1805 9.54677C31.4368 9.81305 31.58 10.1683 31.58 10.5378C31.58 10.9074 31.4368 11.2626 31.1805 11.5289C30.9242 11.7952 30.5747 11.9518 30.2054 11.9659H4.7895L11.4685 18.6574C11.731 18.9289 11.8769 19.2923 11.8749 19.6699C11.873 20.0475 11.7234 20.4094 11.4581 20.6782C11.1899 20.9431 10.8276 21.0907 10.4507 21.0888C10.0738 21.0868 9.71308 20.9354 9.4477 20.6678L0.406295 11.5514C0.283034 11.4191 0.183018 11.267 0.110471 11.1014C0.0359164 10.9277 -0.00168484 10.7404 5.79236e-05 10.5514C0.0025566 10.1763 0.152171 9.81727 0.416712 9.55141L9.46853 0.432929C9.59635 0.29913 9.74942 0.191997 9.9189 0.117725C10.0884 0.0434531 10.2709 0.00351511 10.4559 0.000221762C10.6409 -0.00307159 10.8247 0.0303459 10.9968 0.0985387C11.1688 0.166732 11.3256 0.268348 11.4581 0.397513Z" fill="#D0EBF8"/>
</svg>
