<svg width="97" height="45" viewBox="0 0 97 45" fill="none" xmlns="http://www.w3.org/2000/svg">
<g clip-path="url(#clip0)">
<path d="M50.8714 15.7367C51.1557 15.7367 51.4088 15.8026 51.6307 15.9343C51.8527 16.0661 52.026 16.256 52.1506 16.504C52.2791 16.752 52.3433 17.0426 52.3433 17.3758C52.3433 17.7091 52.2791 17.9997 52.1506 18.2477C52.026 18.4918 51.8527 18.6798 51.6307 18.8115C51.4088 18.9433 51.1557 19.0092 50.8714 19.0092C50.5599 19.0092 50.2951 18.9317 50.077 18.7767C49.8628 18.6178 49.7149 18.4105 49.6331 18.1547V20.4797H49.1016V15.7774H49.6331V16.5912C49.7149 16.3354 49.8628 16.13 50.077 15.975C50.2951 15.8162 50.5599 15.7367 50.8714 15.7367ZM50.7195 16.2075C50.5131 16.2075 50.3262 16.256 50.1588 16.3528C49.9913 16.4458 49.8609 16.5815 49.7674 16.7597C49.674 16.938 49.6273 17.1433 49.6273 17.3758C49.6273 17.6083 49.674 17.8137 49.7674 17.992C49.8609 18.1663 49.9913 18.302 50.1588 18.3988C50.3262 18.4957 50.5131 18.5442 50.7195 18.5442C51.0505 18.5442 51.3134 18.4415 51.5081 18.2361C51.7067 18.0268 51.806 17.7401 51.806 17.3758C51.806 17.0116 51.7067 16.7268 51.5081 16.5214C51.3134 16.3122 51.0505 16.2075 50.7195 16.2075ZM53.569 16.4226C53.6741 16.2017 53.8279 16.0312 54.0304 15.9111C54.2329 15.7871 54.4743 15.7251 54.7547 15.7251V16.3005H54.5911C54.2913 16.3005 54.046 16.378 53.8552 16.533C53.6644 16.6842 53.569 16.936 53.569 17.2887V18.9685H53.0374V15.7774H53.569V16.4226ZM58.2288 17.1957C58.2288 17.308 58.221 17.4049 58.2055 17.4863H55.6413C55.6529 17.8505 55.7561 18.1237 55.9508 18.3058C56.1494 18.488 56.3909 18.579 56.6751 18.579C56.9321 18.579 57.1463 18.5151 57.3176 18.3872C57.4929 18.2555 57.5999 18.0811 57.6389 17.8641H58.2055C58.1665 18.085 58.0789 18.2826 57.9426 18.457C57.8102 18.6313 57.6369 18.767 57.4228 18.8638C57.2086 18.9607 56.9672 19.0092 56.6985 19.0092C56.3909 19.0092 56.1183 18.9433 55.8807 18.8115C55.6432 18.6798 55.4563 18.4918 55.32 18.2477C55.1876 17.9997 55.1214 17.7091 55.1214 17.3758C55.1214 17.0426 55.1876 16.752 55.32 16.504C55.4563 16.256 55.6432 16.0661 55.8807 15.9343C56.1183 15.8026 56.3909 15.7367 56.6985 15.7367C57.01 15.7367 57.2806 15.8026 57.5104 15.9343C57.744 16.0661 57.9212 16.2424 58.0419 16.4633C58.1665 16.6842 58.2288 16.9283 58.2288 17.1957ZM57.6915 17.2305C57.7031 16.9942 57.6642 16.7965 57.5746 16.6377C57.4851 16.4788 57.3624 16.3606 57.2067 16.2831C57.0509 16.2056 56.8815 16.1668 56.6985 16.1668C56.4064 16.1668 56.1611 16.2579 55.9625 16.44C55.7639 16.6183 55.6568 16.8818 55.6413 17.2305H57.6915ZM59.9287 15.7367C60.2908 15.7367 60.5809 15.8317 60.799 16.0215C61.0209 16.2075 61.1553 16.4594 61.202 16.7772H60.6938C60.6705 16.5873 60.5906 16.4323 60.4544 16.3122C60.322 16.1882 60.1428 16.1262 59.917 16.1262C59.7262 16.1262 59.5763 16.1727 59.4672 16.2657C59.3621 16.3548 59.3095 16.4768 59.3095 16.6318C59.3095 16.7481 59.3446 16.843 59.4147 16.9167C59.4886 16.9864 59.5782 17.0407 59.6833 17.0794C59.7924 17.1143 59.9403 17.153 60.1273 17.1957C60.3648 17.2499 60.5556 17.3061 60.6997 17.3642C60.8477 17.4185 60.9723 17.5076 61.0735 17.6316C61.1786 17.7556 61.2312 17.9222 61.2312 18.1315C61.2312 18.3911 61.1319 18.6023 60.9333 18.765C60.7386 18.9278 60.4777 19.0092 60.1506 19.0092C59.769 19.0092 59.4575 18.9181 59.2161 18.736C58.9746 18.5538 58.8325 18.3 58.7897 17.9745H59.3037C59.3231 18.1683 59.4069 18.3252 59.5548 18.4453C59.7067 18.5655 59.9053 18.6255 60.1506 18.6255C60.3336 18.6255 60.4758 18.579 60.577 18.486C60.6822 18.393 60.7347 18.271 60.7347 18.1198C60.7347 17.9958 60.6977 17.897 60.6237 17.8234C60.5498 17.7498 60.4583 17.6936 60.3492 17.6548C60.2402 17.6161 60.0903 17.5754 59.8995 17.5328C59.6619 17.4785 59.4711 17.4243 59.327 17.37C59.1869 17.3158 59.0661 17.2305 58.9649 17.1143C58.8675 16.9942 58.8189 16.8333 58.8189 16.6318C58.8189 16.3645 58.9182 16.1494 59.1168 15.9867C59.3154 15.82 59.586 15.7367 59.9287 15.7367ZM64.8913 17.1957C64.8913 17.308 64.8835 17.4049 64.8679 17.4863H62.3037C62.3154 17.8505 62.4186 18.1237 62.6133 18.3058C62.8119 18.488 63.0533 18.579 63.3376 18.579C63.5946 18.579 63.8088 18.5151 63.9801 18.3872C64.1553 18.2555 64.2624 18.0811 64.3013 17.8641H64.8679C64.829 18.085 64.7414 18.2826 64.6051 18.457C64.4727 18.6313 64.2994 18.767 64.0852 18.8638C63.8711 18.9607 63.6296 19.0092 63.3609 19.0092C63.0533 19.0092 62.7807 18.9433 62.5432 18.8115C62.3057 18.6798 62.1188 18.4918 61.9825 18.2477C61.8501 17.9997 61.7839 17.7091 61.7839 17.3758C61.7839 17.0426 61.8501 16.752 61.9825 16.504C62.1188 16.256 62.3057 16.0661 62.5432 15.9343C62.7807 15.8026 63.0533 15.7367 63.3609 15.7367C63.6725 15.7367 63.9431 15.8026 64.1728 15.9343C64.4065 16.0661 64.5837 16.2424 64.7044 16.4633C64.829 16.6842 64.8913 16.9283 64.8913 17.1957ZM64.3539 17.2305C64.3656 16.9942 64.3267 16.7965 64.2371 16.6377C64.1475 16.4788 64.0249 16.3606 63.8691 16.2831C63.7134 16.2056 63.544 16.1668 63.3609 16.1668C63.0689 16.1668 62.8236 16.2579 62.625 16.44C62.4264 16.6183 62.3193 16.8818 62.3037 17.2305H64.3539ZM66.118 16.4226C66.2231 16.2017 66.377 16.0312 66.5794 15.9111C66.7819 15.7871 67.0234 15.7251 67.3037 15.7251V16.3005H67.1402C66.8403 16.3005 66.595 16.378 66.4042 16.533C66.2134 16.6842 66.118 16.936 66.118 17.2887V18.9685H65.5865V15.7774H66.118V16.4226ZM69.0723 18.4047L70.0653 15.7774H70.6377L69.3819 18.9685H68.751L67.4952 15.7774H68.0676L69.0723 18.4047ZM74.1091 17.1957C74.1091 17.308 74.1013 17.4049 74.0857 17.4863H71.5215C71.5332 17.8505 71.6364 18.1237 71.8311 18.3058C72.0297 18.488 72.2711 18.579 72.5554 18.579C72.8124 18.579 73.0266 18.5151 73.1979 18.3872C73.3731 18.2555 73.4802 18.0811 73.5192 17.8641H74.0857C74.0468 18.085 73.9592 18.2826 73.8229 18.457C73.6905 18.6313 73.5172 18.767 73.303 18.8638C73.0889 18.9607 72.8474 19.0092 72.5788 19.0092C72.2711 19.0092 71.9985 18.9433 71.761 18.8115C71.5235 18.6798 71.3366 18.4918 71.2003 18.2477C71.0679 17.9997 71.0017 17.7091 71.0017 17.3758C71.0017 17.0426 71.0679 16.752 71.2003 16.504C71.3366 16.256 71.5235 16.0661 71.761 15.9343C71.9985 15.8026 72.2711 15.7367 72.5788 15.7367C72.8903 15.7367 73.1609 15.8026 73.3907 15.9343C73.6243 16.0661 73.8015 16.2424 73.9222 16.4633C74.0468 16.6842 74.1091 16.9283 74.1091 17.1957ZM73.5717 17.2305C73.5834 16.9942 73.5445 16.7965 73.4549 16.6377C73.3653 16.4788 73.2427 16.3606 73.0869 16.2831C72.9312 16.2056 72.7618 16.1668 72.5788 16.1668C72.2867 16.1668 72.0414 16.2579 71.8428 16.44C71.6442 16.6183 71.5371 16.8818 71.5215 17.2305H73.5717ZM76.4694 15.7774L77.5092 18.2884L78.4729 15.7774H79.0629L77.1587 20.4797H76.5571L77.2229 18.9162L75.8737 15.7774H76.4694ZM81.0045 15.7367C81.3121 15.7367 81.5867 15.8026 81.8281 15.9343C82.0734 16.0661 82.2642 16.256 82.4005 16.504C82.5407 16.752 82.6108 17.0426 82.6108 17.3758C82.6108 17.7091 82.5407 17.9997 82.4005 18.2477C82.2642 18.4918 82.0734 18.6798 81.8281 18.8115C81.5867 18.9433 81.3121 19.0092 81.0045 19.0092C80.6969 19.0092 80.4204 18.9433 80.1751 18.8115C79.9337 18.6798 79.7429 18.4918 79.6027 18.2477C79.4625 17.9997 79.3924 17.7091 79.3924 17.3758C79.3924 17.0426 79.4625 16.752 79.6027 16.504C79.7429 16.256 79.9337 16.0661 80.1751 15.9343C80.4204 15.8026 80.6969 15.7367 81.0045 15.7367ZM81.0045 16.2017C80.8137 16.2017 80.6365 16.2443 80.473 16.3296C80.3133 16.4148 80.1829 16.5466 80.0816 16.7248C79.9843 16.8992 79.9356 17.1162 79.9356 17.3758C79.9356 17.6316 79.9843 17.8486 80.0816 18.0268C80.1829 18.2012 80.3133 18.331 80.473 18.4163C80.6365 18.5015 80.8137 18.5442 81.0045 18.5442C81.1953 18.5442 81.3706 18.5015 81.5302 18.4163C81.6938 18.331 81.8242 18.2012 81.9216 18.0268C82.0228 17.8486 82.0734 17.6316 82.0734 17.3758C82.0734 17.1162 82.0228 16.8992 81.9216 16.7248C81.8242 16.5466 81.6938 16.4148 81.5302 16.3296C81.3706 16.2443 81.1953 16.2017 81.0045 16.2017ZM86.1539 15.7774V18.9685H85.6223V18.2187C85.5406 18.4783 85.3945 18.6778 85.1842 18.8173C84.9779 18.953 84.7364 19.0208 84.46 19.0208C84.09 19.0208 83.7902 18.9026 83.5604 18.6662C83.3307 18.426 83.2158 18.083 83.2158 17.6374V15.7774H83.7474V17.5851C83.7474 17.9028 83.8291 18.1489 83.9927 18.3233C84.1562 18.4938 84.3782 18.579 84.6586 18.579C84.9506 18.579 85.1842 18.486 85.3595 18.3C85.5347 18.1102 85.6223 17.835 85.6223 17.4747V15.7774H86.1539ZM87.5369 16.4226C87.6421 16.2017 87.7959 16.0312 87.9984 15.9111C88.2008 15.7871 88.4423 15.7251 88.7226 15.7251V16.3005H88.5591C88.2593 16.3005 88.0139 16.378 87.8231 16.533C87.6323 16.6842 87.5369 16.936 87.5369 17.2887V18.9685H87.0054V15.7774H87.5369V16.4226Z" fill="#71B989"/>
<path d="M56.8121 29.659C56.8121 30.2153 56.7278 30.7362 56.5592 31.2218C56.3907 31.7075 56.1466 32.1313 55.8272 32.4933C55.5078 32.851 55.1173 33.1335 54.656 33.341C54.1945 33.5485 53.671 33.6522 53.0854 33.6522C52.6373 33.6522 52.2247 33.5662 51.8476 33.394C51.475 33.2174 51.1555 32.948 50.8893 32.586V37.0297H48.64V25.8512H49.5051L50.5033 27.5134C50.6009 27.2352 50.734 26.9836 50.9026 26.7584C51.0756 26.5288 51.273 26.3346 51.4949 26.1757C51.7211 26.0123 51.9673 25.8865 52.2336 25.7982C52.5042 25.7099 52.7881 25.6658 53.0854 25.6658C53.671 25.6658 54.1945 25.7695 54.656 25.977C55.1173 26.1845 55.5078 26.4692 55.8272 26.8313C56.1466 27.1889 56.3907 27.6105 56.5592 28.0962C56.7278 28.5818 56.8121 29.1027 56.8121 29.659ZM54.5295 29.659C54.5295 29.4647 54.5184 29.2594 54.4962 29.0431C54.4785 28.8223 54.4452 28.6039 54.3964 28.3876C54.3476 28.1711 54.2788 27.9637 54.1901 27.765C54.1058 27.5663 53.9971 27.392 53.864 27.2418C53.7309 27.0873 53.569 26.9659 53.3782 26.8777C53.1918 26.785 52.9744 26.7386 52.726 26.7386C52.4687 26.7386 52.2447 26.7827 52.0539 26.871C51.8676 26.9593 51.7057 27.0807 51.5681 27.2352C51.435 27.3854 51.3241 27.5598 51.2354 27.7584C51.1511 27.9527 51.0845 28.158 51.0357 28.3743C50.9869 28.5906 50.9514 28.8092 50.9292 29.0298C50.9115 29.2506 50.9026 29.4604 50.9026 29.659C50.9026 29.8356 50.916 30.032 50.9425 30.2484C50.9691 30.4603 51.0113 30.6744 51.069 30.8907C51.1266 31.107 51.2021 31.3168 51.2952 31.5199C51.3884 31.723 51.5015 31.9039 51.6346 32.0629C51.7722 32.2219 51.9297 32.3498 52.1071 32.447C52.289 32.5397 52.4954 32.586 52.726 32.586C52.9789 32.586 53.1985 32.5419 53.3849 32.4536C53.5712 32.3609 53.7309 32.2395 53.864 32.0893C53.9971 31.9348 54.1058 31.7582 54.1901 31.5596C54.2788 31.3609 54.3476 31.1534 54.3964 30.9371C54.4452 30.7208 54.4785 30.5022 54.4962 30.2815C54.5184 30.0608 54.5295 29.8533 54.5295 29.659ZM57.8702 30.2285C57.8702 29.8797 57.899 29.5177 57.9567 29.1425C58.0188 28.7672 58.1053 28.3919 58.2163 28.0166C58.3316 27.6414 58.4691 27.2706 58.6288 26.9041C58.7886 26.5377 58.9682 26.1867 59.1679 25.8512H60.8116C60.7007 26.1823 60.6009 26.5288 60.5122 26.8908C60.4279 27.2485 60.3547 27.6083 60.2926 27.9703C60.2348 28.3279 60.1883 28.6789 60.1528 29.0233C60.1217 29.3676 60.1062 29.6877 60.1062 29.9835C60.1062 30.1557 60.1128 30.3411 60.1262 30.5397C60.1439 30.7341 60.1727 30.9305 60.2127 31.1291C60.2526 31.3235 60.308 31.511 60.3791 31.6921C60.4544 31.873 60.5498 32.0342 60.6652 32.1755C60.7806 32.3124 60.9204 32.4227 61.0845 32.5066C61.253 32.586 61.4504 32.6258 61.6768 32.6258C61.8985 32.6258 62.096 32.5772 62.2691 32.4801C62.4465 32.3785 62.6018 32.2483 62.7349 32.0893C62.868 31.926 62.9811 31.7406 63.0742 31.5331C63.1674 31.3256 63.2429 31.1137 63.3005 30.8974C63.3626 30.6766 63.407 30.4625 63.4337 30.255C63.4647 30.0431 63.4802 29.8533 63.4802 29.6855V25.8512H65.7296V33.4999H64.8644L63.8329 31.7185C63.7043 32.0144 63.5468 32.2837 63.3604 32.5264C63.1785 32.7649 62.97 32.9701 62.7349 33.1424C62.4997 33.3145 62.238 33.447 61.9496 33.5397C61.6657 33.6324 61.3573 33.6788 61.0245 33.6788C60.4922 33.6788 60.0285 33.5927 59.6337 33.4205C59.2388 33.2483 58.9106 33.0099 58.6488 32.7053C58.387 32.4006 58.1918 32.0386 58.0632 31.6192C57.9345 31.1954 57.8702 30.7318 57.8702 30.2285ZM73.6954 33.4999H67.1869V32.6126L71.2131 26.7386H67.1869V25.8512H73.6954V26.7386L69.6691 32.6126H73.6954V33.4999ZM81.2286 33.4999H74.7202V32.6126L78.7463 26.7386H74.7202V25.8512H81.2286V26.7386L77.2024 32.6126H81.2286V33.4999ZM84.922 33.4999H82.6727V22.3281H83.5378L84.922 24.6525V33.4999ZM88.6487 29.8709C88.9238 29.9327 89.1988 29.9813 89.4739 30.0166C89.7489 30.052 90.0263 30.0696 90.3058 30.0696C90.5986 30.0696 90.8691 30.0431 91.1177 29.9902C91.3705 29.9327 91.5879 29.84 91.7698 29.7119C91.9561 29.5795 92.1025 29.4051 92.209 29.1888C92.3155 28.9725 92.3687 28.7032 92.3687 28.3809C92.3687 28.1204 92.3333 27.882 92.2622 27.6656C92.1912 27.4493 92.0847 27.2639 91.9428 27.1094C91.8052 26.9549 91.6345 26.8357 91.4303 26.7518C91.2263 26.6635 90.989 26.6194 90.7183 26.6194C90.4654 26.6194 90.2369 26.6657 90.0329 26.7584C89.8332 26.8511 89.6557 26.977 89.5005 27.1359C89.3497 27.2905 89.2187 27.4714 89.1079 27.6789C89.0014 27.8864 88.9127 28.1027 88.8417 28.3279C88.7706 28.5531 88.7196 28.7805 88.6886 29.01C88.6575 29.2396 88.642 29.4559 88.642 29.659C88.642 29.6943 88.642 29.7297 88.642 29.7649C88.642 29.8003 88.6443 29.8356 88.6487 29.8709ZM94.1922 28.361C94.1922 28.6745 94.1412 28.9549 94.039 29.2021C93.937 29.4449 93.7973 29.659 93.6198 29.8445C93.4468 30.0299 93.2449 30.1866 93.0142 30.3146C92.7835 30.4427 92.5373 30.5486 92.2755 30.6324C92.0138 30.712 91.7431 30.7693 91.4636 30.8047C91.1886 30.84 90.9202 30.8577 90.6584 30.8577C90.3257 30.8577 89.9973 30.8356 89.6736 30.7914C89.3497 30.7429 89.0303 30.6678 88.7152 30.5663C88.764 30.8577 88.8417 31.1358 88.9481 31.4007C89.0546 31.6612 89.1965 31.8908 89.374 32.0893C89.5515 32.2837 89.7689 32.4382 90.0263 32.553C90.2879 32.6678 90.5963 32.7251 90.9513 32.7251C91.1864 32.7251 91.4104 32.6898 91.6234 32.6192C91.8363 32.5485 92.0316 32.4492 92.209 32.3212C92.3864 32.1931 92.5417 32.0408 92.6749 31.8642C92.8123 31.6876 92.9233 31.4911 93.0076 31.2748L93.9792 31.6325C93.8328 31.9812 93.6309 32.2837 93.3736 32.5397C93.1207 32.7914 92.8323 33.001 92.5085 33.1688C92.189 33.3322 91.8474 33.4535 91.4836 33.5331C91.1243 33.6125 90.7671 33.6522 90.4122 33.6522C89.8266 33.6522 89.2853 33.5552 88.7884 33.3608C88.2916 33.1622 87.8634 32.8862 87.504 32.5331C87.1447 32.1799 86.863 31.7582 86.6589 31.2682C86.4548 30.7781 86.3527 30.2417 86.3527 29.659C86.3527 29.0762 86.4548 28.5398 86.6589 28.0498C86.863 27.5598 87.1447 27.1381 87.504 26.785C87.8634 26.4318 88.2916 26.158 88.7884 25.9637C89.2853 25.7651 89.8266 25.6658 90.4122 25.6658C90.6961 25.6658 90.9867 25.6856 91.284 25.7253C91.5812 25.7651 91.8696 25.8291 92.1491 25.9174C92.4286 26.0012 92.6926 26.1117 92.941 26.2485C93.1895 26.3853 93.4046 26.5554 93.5865 26.7584C93.7729 26.9571 93.9193 27.1889 94.0258 27.4538C94.1367 27.7186 94.1922 28.0211 94.1922 28.361Z" fill="#303133"/>
<path d="M29.8259 13.4066C28.3233 11.9069 25.8646 11.9069 24.3619 13.4066C22.8593 14.9064 22.8593 17.3605 24.3619 18.8603C24.5942 19.0921 24.8537 19.2965 25.1269 19.4601L24.3619 20.2237L22.313 22.2688L25.1315 25.082C25.2999 24.8048 25.4958 24.5458 25.728 24.314C27.2351 22.8096 29.6848 22.8096 31.192 24.314C32.6991 25.8183 32.6991 28.2633 31.192 29.7677C30.9598 29.9994 30.7048 30.1994 30.4225 30.363L33.9695 33.9033L43.5771 24.314C44.7108 23.1823 44.7108 21.3553 43.5771 20.2237L33.9695 10.6343L30.427 14.1701C30.2631 13.8975 30.0582 13.6384 29.8259 13.4066Z" fill="#71B989"/>
<path d="M31.1921 29.7678C32.6992 28.2635 32.6992 25.8184 31.1921 24.3141C29.685 22.8099 27.2352 22.8099 25.7281 24.3141C25.4959 24.5459 25.2955 24.8004 25.1316 25.0822L22.3131 22.269L21.6301 22.9507L19.4946 25.0822C19.7723 25.2503 20.0319 25.4457 20.2641 25.6775C21.7712 27.1818 21.7712 29.6269 20.2641 31.1312C18.757 32.6355 16.3072 32.6355 14.8001 31.1312C14.5679 30.8994 14.3675 30.6449 14.2035 30.3631L10.6565 33.9035L20.2641 43.4929C21.3978 44.6246 23.2283 44.6245 24.362 43.4929L33.2866 34.5852L33.9696 33.9034L30.4226 30.3631C30.7049 30.1995 30.9599 29.9996 31.1921 29.7678Z" fill="#61BDE8"/>
<path d="M14.8001 31.131C16.3072 32.6353 18.7569 32.6353 20.2641 31.131C21.7712 29.6268 21.7712 27.1816 20.2641 25.6774C20.0319 25.4456 19.7769 25.2456 19.4946 25.0821L21.6301 22.9505L22.3131 22.2688L19.4991 19.4601C19.3352 19.7329 19.1303 19.9919 18.898 20.2237C17.3954 21.7234 14.9367 21.7234 13.434 20.2237C11.9314 18.7239 11.9314 16.2698 13.4341 14.77C13.6663 14.5382 13.9258 14.3337 14.199 14.1701L10.6565 10.6343L1.04901 20.2237C-0.0847761 21.3553 -0.0847771 23.1823 1.04901 24.314L10.6565 33.9033L14.2036 30.363C14.3675 30.6447 14.5679 30.8993 14.8001 31.131Z" fill="#85599D"/>
<path d="M20.2641 1.04502L12.7055 8.58928L10.6565 10.6344L14.199 14.1702C13.9258 14.3338 13.6662 14.5383 13.434 14.7701C11.9314 16.2699 11.9314 18.724 13.434 20.2238C14.9367 21.7235 17.3954 21.7235 18.898 20.2238C19.1303 19.992 19.3352 19.7329 19.4991 19.4602L22.3131 22.2689L24.362 20.2238L25.127 19.4602C24.8538 19.2966 24.5943 19.0922 24.362 18.8604C22.8594 17.3606 22.8594 14.9065 24.362 13.4067C25.8647 11.907 28.3234 11.907 29.826 13.4067C30.0583 13.6385 30.2632 13.8975 30.4271 14.1702L33.9696 10.6344L24.3621 1.04502C23.2283 -0.0866203 21.3978 -0.0866193 20.2641 1.04502Z" fill="#F2D996"/>
</g>
<defs>
<clipPath id="clip0">
<rect width="96.3768" height="44.5625" fill="white" transform="translate(0 0.4375)"/>
</clipPath>
</defs>
</svg>
