<svg width="70" height="70" viewBox="0 0 70 70" fill="none" xmlns="http://www.w3.org/2000/svg">
<circle cx="35" cy="35" r="35" fill="#EFC3C8"/>
<path d="M49.7333 22.6833C48.8821 21.8317 47.8714 21.1561 46.7589 20.6951C45.6465 20.2342 44.4541 19.9969 43.25 19.9969C42.0459 19.9969 40.8535 20.2342 39.7411 20.6951C38.6286 21.1561 37.6179 21.8317 36.7667 22.6833L35 24.45L33.2333 22.6833C31.5138 20.9638 29.1817 19.9978 26.75 19.9978C24.3183 19.9978 21.9862 20.9638 20.2667 22.6833C18.5472 24.4028 17.5812 26.7349 17.5812 29.1667C17.5812 31.5984 18.5472 33.9305 20.2667 35.65L22.0333 37.4167L35 50.3833L47.9667 37.4167L49.7333 35.65C50.585 34.7987 51.2606 33.788 51.7215 32.6756C52.1825 31.5632 52.4197 30.3708 52.4197 29.1667C52.4197 27.9625 52.1825 26.7702 51.7215 25.6577C51.2606 24.5453 50.585 23.5346 49.7333 22.6833V22.6833Z" stroke="#CA3748" stroke-width="4" stroke-linecap="round" stroke-linejoin="round"/>
</svg>
