<svg width="70" height="70" viewBox="0 0 70 70" fill="none" xmlns="http://www.w3.org/2000/svg">
<circle cx="35" cy="35" r="35" fill="#D4EADC"/>
<path d="M47.4445 33.25H22.9445C21.0115 33.25 19.4445 34.817 19.4445 36.75V49C19.4445 50.933 21.0115 52.5 22.9445 52.5H47.4445C49.3775 52.5 50.9445 50.933 50.9445 49V36.75C50.9445 34.817 49.3775 33.25 47.4445 33.25Z" stroke="#71B989" stroke-width="4" stroke-linecap="round" stroke-linejoin="round"/>
<path d="M26.4444 33.25V26.25C26.4444 23.9294 27.3663 21.7038 29.0072 20.0628C30.6482 18.4219 32.8738 17.5 35.1944 17.5C37.5151 17.5 39.7407 18.4219 41.3816 20.0628C43.0226 21.7038 43.9444 23.9294 43.9444 26.25V33.25" stroke="#71B989" stroke-width="4" stroke-linecap="round" stroke-linejoin="round"/>
</svg>
