<svg width="42" height="43" viewBox="0 0 42 43" fill="none" xmlns="http://www.w3.org/2000/svg">
<path d="M23.1647 38.6421C25.2335 42.0536 29.8267 43.2254 33.4099 41.2558C36.9931 39.2861 38.2238 34.9129 36.1551 31.5014C35.8363 30.9758 35.4589 30.4961 35.0119 30.0685L40.089 27.2776L41.7128 26.3851L37.8503 20.0155C37.4057 20.4248 36.8911 20.7901 36.339 21.0936C32.7666 23.0573 28.1563 21.8812 26.0938 18.48C24.0313 15.0787 25.2666 10.6893 28.839 8.7256C29.3911 8.42212 29.9807 8.18048 30.5753 8.01853L25.7128 -7.78836e-05L2.87139 12.5556C0.175887 14.0373 -0.743752 17.305 0.812496 19.8714L14 41.6185L22.4329 36.983C22.5984 37.5654 22.846 38.1165 23.1647 38.6421Z" fill="#4C986F"/>
</svg>
